<?xml version="1.0" encoding="utf-8"?>
<!-- Generator: Adobe Illustrator 16.0.0, SVG Export Plug-In . SVG Version: 6.00 Build 0)  -->
<!DOCTYPE svg PUBLIC "-//W3C//DTD SVG 1.1//EN" "http://www.w3.org/Graphics/SVG/1.1/DTD/svg11.dtd">
<svg version="1.1" id="Camada_1" xmlns="http://www.w3.org/2000/svg" xmlns:xlink="http://www.w3.org/1999/xlink" x="0px" y="0px"
	 width="37.999px" height="37.11px" viewBox="0 0 37.999 37.11" enable-background="new 0 0 37.999 37.11" xml:space="preserve">
<path fill-rule="evenodd" clip-rule="evenodd" fill="#F38F1C" d="M19,0C8.522,0,0,8.323,0,18.554C0,28.786,8.522,37.11,19,37.11
	c10.476,0,18.999-8.324,18.999-18.556C37.999,8.323,29.476,0,19,0z M19,35.209c-9.42,0-17.054-7.462-17.054-16.655
	C1.946,9.356,9.58,1.901,19,1.901c9.415,0,17.052,7.455,17.052,16.653C36.052,27.747,28.415,35.209,19,35.209z"/>
<path fill-rule="evenodd" clip-rule="evenodd" fill="#F38F1C" d="M30.042,15.703l-1.778,1.06c0.112,0.582,0.188,1.176,0.188,1.791
	c0,0.589-0.068,1.16-0.171,1.72l1.853,1.069c0.754,0.435,1.012,1.399,0.577,2.153l-1.577,2.73c-0.435,0.754-1.398,1.013-2.153,0.577
	l-1.868-1.079c-0.871,0.742-1.859,1.348-2.959,1.738v2.129c0,0.869-0.706,1.576-1.576,1.576h-3.154c-0.87,0-1.576-0.707-1.576-1.576
	v-2.129c-1.043-0.369-1.987-0.933-2.825-1.62l-1.937,1.153c-0.748,0.445-1.704,0.181-2.136-0.591l-1.563-2.794
	c-0.432-0.771-0.176-1.758,0.572-2.204l1.778-1.06c-0.112-0.583-0.189-1.178-0.189-1.794c0-0.588,0.067-1.159,0.171-1.717
	l-1.852-1.069c-0.755-0.435-1.013-1.399-0.577-2.153l1.576-2.73c0.436-0.754,1.399-1.013,2.153-0.577l1.867,1.078
	c0.871-0.742,1.86-1.35,2.961-1.739V7.52c0-0.871,0.706-1.577,1.576-1.577h3.154c0.87,0,1.576,0.706,1.576,1.577v2.126
	c1.043,0.37,1.988,0.934,2.827,1.622l1.935-1.152c0.748-0.446,1.703-0.182,2.136,0.59l1.563,2.794
	C31.046,14.271,30.79,15.258,30.042,15.703z M28.869,13.607l-0.782-1.397c-0.215-0.386-0.693-0.518-1.067-0.295l-2.21,1.316
	c-1.104-1.202-2.571-2.065-4.232-2.402V8.308c0-0.436-0.354-0.788-0.789-0.788h-1.576c-0.436,0-0.789,0.353-0.789,0.788v2.521
	c-1.707,0.346-3.209,1.247-4.321,2.5l-2.188-1.263c-0.377-0.218-0.858-0.089-1.076,0.289L9.048,13.72
	c-0.218,0.377-0.088,0.859,0.289,1.077l2.184,1.261c-0.262,0.785-0.41,1.623-0.41,2.496c0,0.904,0.156,1.771,0.437,2.579
	l-2.13,1.269c-0.374,0.223-0.502,0.716-0.286,1.102L9.912,24.9c0.216,0.386,0.694,0.518,1.068,0.295l2.211-1.316
	c1.104,1.201,2.57,2.063,4.231,2.4v2.523c0,0.436,0.354,0.789,0.789,0.789h1.576c0.436,0,0.789-0.354,0.789-0.789v-2.523
	c1.705-0.346,3.207-1.246,4.319-2.499l2.19,1.265c0.377,0.218,0.858,0.088,1.076-0.289l0.788-1.365
	c0.218-0.377,0.089-0.859-0.288-1.076l-2.186-1.262c0.264-0.786,0.412-1.625,0.412-2.499c0-0.902-0.156-1.768-0.437-2.576
	l2.13-1.269C28.957,14.486,29.085,13.993,28.869,13.607z M19,22.496c-2.172,0-3.933-1.766-3.933-3.942s1.761-3.941,3.933-3.941
	c2.171,0,3.933,1.765,3.933,3.941S21.171,22.496,19,22.496z M19,16.188c-1.309,0-2.37,1.059-2.37,2.365
	c0,1.306,1.062,2.365,2.37,2.365s2.369-1.06,2.369-2.365C21.369,17.247,20.309,16.188,19,16.188z"/>
</svg>
