<?xml version="1.0" encoding="utf-8"?>
<!-- Generator: Adobe Illustrator 16.0.0, SVG Export Plug-In . SVG Version: 6.00 Build 0)  -->
<!DOCTYPE svg PUBLIC "-//W3C//DTD SVG 1.1//EN" "http://www.w3.org/Graphics/SVG/1.1/DTD/svg11.dtd">
<svg version="1.1" id="Camada_1" xmlns="http://www.w3.org/2000/svg" xmlns:xlink="http://www.w3.org/1999/xlink" x="0px" y="0px"
	 width="536.525px" height="135.749px" viewBox="0 0 536.525 135.749" enable-background="new 0 0 536.525 135.749"
	 xml:space="preserve">
<path fill-rule="evenodd" clip-rule="evenodd" fill="#FFFFFF" d="M530.933,59.044l-16.777,8.961
	c-1.354-2.918-2.813-5.002-4.342-6.287s-3.335-1.945-5.419-1.945c-1.771,0-3.335,0.625-4.654,1.841
	c-1.32,1.216-1.98,2.675-1.98,4.377c0,1.875,0.729,3.508,2.224,4.828c1.493,1.32,4.62,3.057,9.379,5.21
	c9.031,4.134,15.214,7.642,18.618,10.49c5.697,4.759,8.545,10.838,8.545,18.236c0,8.268-2.987,15.284-8.996,21.05
	c-6.01,5.767-13.339,8.649-21.953,8.649c-7.781,0-14.624-2.153-20.46-6.426c-2.57-1.876-4.654-3.926-6.252-6.079
	c-1.599-2.188-3.196-5.245-4.829-9.171l17.194-7.954c2.432,4.481,4.655,7.538,6.67,9.171c1.979,1.632,4.516,2.432,7.572,2.432
	s5.522-0.869,7.364-2.605c1.875-1.702,2.813-3.96,2.813-6.739c0-2.918-0.973-5.176-2.953-6.738
	c-1.979-1.563-7.711-4.655-17.194-9.344c-6.356-3.196-10.629-6.287-12.817-9.274c-2.709-3.647-4.063-8.198-4.063-13.617
	c0-7.121,2.118-12.922,6.321-17.403c5.558-5.975,12.748-8.961,21.571-8.961c6.356,0,12.054,2.153,16.986,6.496
	C526.14,50.568,528.641,54.146,530.933,59.044 M464.604,83.893l0.156,47.923h-20.182l-0.125-47.963L464.604,83.893z M311.959,45.991
	H331.7v7.984c3.703-3.976,6.999-6.693,9.854-8.121c2.854-1.427,6.421-2.141,10.736-2.141c9.684,0,17.362,4.213,23.002,12.64
	c2.956-4.111,6.626-7.237,10.975-9.412c4.349-2.141,9.14-3.228,14.406-3.228c4.893,0,9.411,0.951,13.591,2.888
	c4.146,1.937,7.406,4.587,9.785,7.951c3.84,5.402,5.776,13.455,5.776,24.191v53.072h-19.741V84.147
	c0-8.223-1.019-14.101-3.023-17.566c-2.038-3.499-5.471-5.232-10.295-5.232c-5.641,0-9.819,2.174-12.538,6.558
	c-2.31,3.873-3.465,10.396-3.465,19.604v44.306h-19.74V84.453c0-7.917-1.088-13.727-3.229-17.464c-2.141-3.771-5.47-5.64-9.989-5.64
	c-2.446,0-4.791,0.578-7.066,1.733c-2.243,1.155-4.044,2.718-5.369,4.621c-2.446,3.669-3.669,10.261-3.669,19.808v44.306h-19.741
	V45.991z M243.632,45.991v49.266c0,3.84,0.238,6.897,0.748,9.174c0.509,2.243,1.359,4.281,2.65,6.048
	c2.956,4.18,7.475,6.286,13.522,6.286c5.946,0,10.465-2.106,13.523-6.286c1.258-1.767,2.106-3.805,2.616-6.048
	c0.51-2.276,0.748-5.334,0.748-9.174V45.991h19.74v49.674c0,7.305-0.815,13.217-2.48,17.736c-1.665,4.519-4.519,8.562-8.563,12.129
	c-6.659,5.912-15.188,8.868-25.584,8.868c-10.43,0-18.958-2.956-25.618-8.868c-4.043-3.567-6.897-7.61-8.562-12.096
	c-1.665-4.484-2.48-10.396-2.48-17.77V45.991H243.632z M176.719,5.699l0.177,106.7h41.683v19.418h-61.865l0.027-126.118H176.719z"/>
<path fill-rule="evenodd" clip-rule="evenodd" fill="#FFFFFF" d="M127.698,36.956C116.552,15.026,93.78,0,67.494,0
	C41.209,0,18.436,15.026,7.29,36.956H127.698z"/>
<path fill-rule="evenodd" clip-rule="evenodd" fill="#FFFFFF" d="M66.133,45.514H3.938C1.391,52.625,0,60.286,0,68.272
	c0,36.82,29.485,66.75,66.133,67.477V45.514z"/>
<path fill-rule="evenodd" clip-rule="evenodd" fill="#FFFFFF" d="M135.377,68.272c0-7.986-1.391-15.647-3.937-22.758H76.636v35.011
	h57.628C134.994,76.551,135.377,72.456,135.377,68.272"/>
<path fill-rule="evenodd" clip-rule="evenodd" fill="#FFFFFF" d="M76.636,88.694v46.507c26.263-3.401,47.789-21.899,55.593-46.507
	H76.636z"/>
<rect x="444.461" y="43.177" fill-rule="evenodd" clip-rule="evenodd" fill="#FFFFFF" width="20.126" height="19.53"/>
<rect x="444.429" y="65.417" fill-rule="evenodd" clip-rule="evenodd" fill="#FFFFFF" width="20.148" height="15.221"/>
</svg>
