<?xml version="1.0" encoding="utf-8"?>
<!-- Generator: Adobe Illustrator 16.0.0, SVG Export Plug-In . SVG Version: 6.00 Build 0)  -->
<!DOCTYPE svg PUBLIC "-//W3C//DTD SVG 1.1//EN" "http://www.w3.org/Graphics/SVG/1.1/DTD/svg11.dtd">
<svg version="1.1" id="Camada_1" xmlns="http://www.w3.org/2000/svg" xmlns:xlink="http://www.w3.org/1999/xlink" x="0px" y="0px"
	 width="1384.804px" height="223.809px" viewBox="0 0 1384.804 223.809" enable-background="new 0 0 1384.804 223.809"
	 xml:space="preserve">
<image display="none" overflow="visible" width="2362" height="2362" id="Agrupar_2_xA0_Imagem_2_" xlink:href="21F24CE7.png"  transform="matrix(0.1425 0 0 0.1425 1215.3804 1235.4614)">
</image>
<text transform="matrix(1 0 0 1 21.0391 1605.7583)" display="none" fill="#F9AF00" font-family="'MuseoSansRounded-500'" font-size="97.0162">faça a sua web</text>
<g>
	<path fill="#FFFFFF" d="M251.663,51.83h12.154v112.882h57.424v10.917h-69.579V51.83z"/>
	<path fill="#FFFFFF" d="M347.312,51.83h12.33v80.479c0,21.309,13.74,34.164,35.053,34.164c21.314,0,35.229-12.855,35.229-34.516
		V51.83h12.154v80.655c0,27.472-19.2,45.257-47.208,45.257c-28.184,0-47.56-17.786-47.56-45.257V51.83z"/>
	<path fill="#FFFFFF" d="M491.225,51.83h12.683l32.411,72.73c2.818,6.34,5.989,15.145,5.989,15.145h0.352
		c0,0,3.347-8.805,6.165-15.145l32.411-72.73h12.506l9.864,123.799h-12.154l-6.87-86.641c-0.529-6.692-0.353-17.259-0.353-17.259
		h-0.353c0,0-3.699,10.919-6.517,17.259l-29.064,63.572h-11.45l-29.064-63.572c-2.818-6.164-6.693-17.61-6.693-17.61h-0.353
		c0,0,0.176,10.918-0.352,17.61l-6.87,86.641H481.36L491.225,51.83z"/>
	<path fill="#FFFFFF" d="M644.472,51.83h12.154v123.799h-12.154V51.83z"/>
	<path fill="#FFFFFF" d="M699.429,152.561c0,0,12.859,13.56,32.411,13.56c13.563,0,24.661-8.101,24.661-21.484
		c0-31.169-61.828-23.245-61.828-61.636c0-17.786,15.678-33.283,38.576-33.283c21.49,0,33.115,11.976,33.115,11.976l-5.988,10.214
		c0,0-10.922-10.566-27.127-10.566c-15.854,0-26.07,10.39-26.07,21.309c0,29.409,61.828,20.956,61.828,61.636
		c0,18.49-14.268,33.458-37.52,33.458c-25.365,0-39.281-15.849-39.281-15.849L699.429,152.561z"/>
	<path fill="#FFFFFF" d="M808.058,54.445c0-2.76,1.506-4.266,4.267-4.266h2.008c2.761,0,4.267,1.506,4.267,4.266v10.788
		c0,5.771-0.753,10.036-0.753,10.036h0.502c0,0,10.29-28.101,45.176-28.101c33.631,0,54.211,26.847,54.211,65.736
		c0,39.893-23.341,65.736-55.717,65.736c-32.627,0-43.921-28.352-43.921-28.352h-0.502c0,0,1.004,4.516,1.004,11.039v58.217
		c0,2.76-1.506,4.264-4.267,4.264h-2.008c-2.761,0-4.267-1.504-4.267-4.264V54.445z M862.018,168.354
		c24.596,0,44.674-20.322,44.674-55.448c0-33.872-18.07-55.449-43.67-55.449c-23.09,0-44.674,16.309-44.674,55.699
		C818.348,141.006,833.909,168.354,862.018,168.354z"/>
	<path fill="#FFFFFF" d="M1000.81,47.169c35.889,0,65.002,28.352,65.002,64.983c0,37.384-29.113,66.489-65.002,66.489
		c-35.891,0-65.004-29.105-65.004-66.489C935.806,75.521,964.919,47.169,1000.81,47.169z M1000.81,168.354
		c29.865,0,53.959-24.337,53.959-56.201c0-31.112-24.094-54.696-53.959-54.696c-29.867,0-53.961,23.584-53.961,54.696
		C946.849,144.017,970.943,168.354,1000.81,168.354z"/>
	<path fill="#FFFFFF" d="M1092.417,54.445c0-2.76,1.506-4.266,4.266-4.266h2.008c2.762,0,4.268,1.506,4.268,4.266v19.57
		c0,5.771-1.004,10.286-1.004,10.286h0.502c6.273-19.319,21.082-34.875,42.164-34.875c3.514,0,5.27,1.506,5.27,4.266v2.258
		c0,2.76-2.258,4.266-5.521,4.266c-28.109,0-41.41,33.37-41.41,61.219v49.928c0,2.76-1.506,4.266-4.268,4.266h-2.008
		c-2.76,0-4.266-1.506-4.266-4.266V54.445z"/>
	<path fill="#FFFFFF" d="M1170.722,60.467h-12.297c-2.762,0-4.268-1.506-4.268-4.266v-1.003c0-2.761,1.506-4.266,4.268-4.266h12.297
		V19.57c0-2.761,1.506-4.266,4.268-4.266h2.008c2.76,0,4.266,1.505,4.266,4.266v31.362h28.611c2.762,0,4.268,1.505,4.268,4.266
		v1.003c0,2.76-1.506,4.266-4.268,4.266h-28.611v68.997c0,33.621,20.33,36.883,30.619,37.385c3.766,0.251,5.02,1.505,5.02,4.265
		v1.254c0,2.51-1.004,4.266-4.266,4.266c-29.615,0-41.914-18.817-41.914-46.417V60.467z"/>
	<path fill="#FFFFFF" d="M1302.484,99.105h8.283V94.84c0-27.85-14.307-37.384-34.385-37.384c-15.309,0-26.854,6.021-32.375,9.534
		c-2.26,1.505-4.268,1.254-6.023-1.004l-1.004-1.505c-1.758-2.259-1.506-4.516,0.752-6.022c5.773-4.014,19.326-11.29,39.152-11.29
		c28.863,0,44.424,16.058,44.424,47.42v76.775c0,2.76-1.506,4.266-4.268,4.266h-2.008c-2.76,0-4.266-1.506-4.266-4.266V159.07
		c0-6.774,1.004-11.29,1.004-11.29h-0.502c0.25,0-11.295,30.861-43.922,30.861c-20.328,0-42.666-11.291-42.666-36.381
		C1224.681,99.607,1280.148,99.105,1302.484,99.105z M1267.849,168.856c27.357,0,42.918-28.352,42.918-53.191v-6.774h-8.031
		c-21.334,0-67.012,0-67.012,32.617C1235.724,154.805,1246.517,168.856,1267.849,168.856z"/>
	<path fill="#FFFFFF" d="M1355.691,4.265c0-2.76,1.506-4.265,4.266-4.265h2.008c2.762,0,4.268,1.505,4.268,4.265v142.512
		c0,17.563,8.533,19.068,14.557,19.821c2.258,0.251,4.016,1.003,4.016,4.014v1.506c0,2.76-1.004,4.516-4.518,4.516
		c-7.279,0-24.596-2.76-24.596-26.344V4.265z"/>
</g>
<g id="Forma_8_2_">
	<g>
		<path fill-rule="evenodd" clip-rule="evenodd" fill="#FFFFFF" d="M95.409,55.099c-25.458,0-47.516,14.057-58.311,34.565h116.628
			C142.925,69.155,120.874,55.099,95.409,55.099z M30.032,118.953c0,34.435,28.565,62.426,64.059,63.11V97.666H33.849
			C31.384,104.314,30.032,111.483,30.032,118.953z M157.351,97.666h-53.087v32.742h55.818c0.709-3.714,1.079-7.544,1.079-11.455
			C161.16,111.483,159.815,104.314,157.351,97.666z M104.264,181.543c25.444-3.182,46.287-20.482,53.852-43.489h-53.852V181.543z
			 M96.125,23.701C43.12,23.701,0,65.81,0,117.572c0,51.77,43.12,93.879,96.125,93.879s96.125-42.109,96.125-93.879
			C192.25,65.81,149.131,23.701,96.125,23.701z M96.125,197.6c-45.264,0-81.945-35.854-81.945-80.028
			c0-44.197,36.682-80.019,81.945-80.019c45.243,0,81.938,35.821,81.938,80.019C178.064,161.746,141.369,197.6,96.125,197.6z"/>
	</g>
</g>
</svg>
