<?xml version="1.0" encoding="utf-8"?>
<!-- Generator: Adobe Illustrator 16.0.0, SVG Export Plug-In . SVG Version: 6.00 Build 0)  -->
<!DOCTYPE svg PUBLIC "-//W3C//DTD SVG 1.1//EN" "http://www.w3.org/Graphics/SVG/1.1/DTD/svg11.dtd">
<svg version="1.1" id="Camada_1" xmlns="http://www.w3.org/2000/svg" xmlns:xlink="http://www.w3.org/1999/xlink" x="0px" y="0px"
	 width="37.999px" height="37.11px" viewBox="0 0 37.999 37.11" enable-background="new 0 0 37.999 37.11" xml:space="preserve">
<path fill-rule="evenodd" clip-rule="evenodd" fill="#B2B2B2" d="M30.933,27.222l-4.244-4.242c1.075-1.676,1.707-3.666,1.707-5.804
	c0-5.953-4.823-10.776-10.775-10.776S6.844,11.223,6.844,17.176c0,5.95,4.824,10.776,10.776,10.776c2.139,0,4.127-0.633,5.804-1.707
	l4.241,4.242c0.297,0.299,0.787,0.299,1.087,0l2.181-2.178C31.229,28.009,31.229,27.521,30.933,27.222z M17.62,24.874
	c-4.244,0-7.697-3.455-7.697-7.698c0-4.244,3.453-7.697,7.697-7.697c4.245,0,7.696,3.454,7.696,7.697
	C25.316,21.419,21.865,24.874,17.62,24.874z"/>
</svg>
